<svg xmlns="http://www.w3.org/2000/svg" id="Layer_1" viewBox="0 0 362.47 362.47"><defs><style>.st1{fill:#fff}</style></defs><path d="M336.86 181.1c-.77-57.56-12.38-95.35-36.55-118.94-23.58-24.17-61.38-35.78-118.93-36.55h-.28C123.55 26.38 85.75 38 62.16 62.16 37.99 85.74 26.38 123.54 25.61 181.1v.28c.77 57.55 12.39 95.35 36.55 118.94 23.58 24.17 61.38 35.78 118.94 36.55h.28c57.55-.77 95.35-12.39 118.94-36.55 24.17-23.58 35.78-61.38 36.55-118.94v-.28Z" style="fill:#010101"/><path d="M220.75 131.85h39.51v39.51h-39.51zM161.48 131.85h39.51v39.51h-39.51zM102.22 131.85h39.51v39.51h-39.51zM220.75 171.36h39.51v19.75h-39.51zM161.48 171.36h39.51v19.75h-39.51zM102.22 171.36h39.51v19.75h-39.51zM220.75 191.11h39.51v39.51h-39.51zM161.48 191.11h39.51v39.51h-39.51zM102.22 191.11h39.51v39.51h-39.51z" class="st1"/></svg>